<?xml version="1.0" standalone="no"?>
<!DOCTYPE svg PUBLIC "-//W3C//DTD SVG 20010904//EN"
 "http://www.w3.org/TR/2001/REC-SVG-20010904/DTD/svg10.dtd">
<svg version="1.0" xmlns="http://www.w3.org/2000/svg"
 width="1024.000000pt" height="1024.000000pt" viewBox="0 0 1024.000000 1024.000000"
 preserveAspectRatio="xMidYMid meet">
<metadata>
Created by potrace 1.11, written by Peter Selinger 2001-2013
</metadata>
<g transform="translate(0.000000,1024.000000) scale(0.100000,-0.100000)"
fill="#000000" stroke="none">
<path d="M0 5120 l0 -5120 5120 0 5120 0 0 5120 0 5120 -5120 0 -5120 0 0
-5120z m8375 1208 c-3 -1003 -8 -1901 -11 -1995 l-6 -173 -93 0 -93 0 -6 528
c-3 290 -9 1187 -12 1995 l-6 1467 116 0 117 0 -6 -1822z m-4910 543 c130 -29
207 -56 320 -111 273 -135 469 -365 570 -666 18 -54 35 -92 38 -84 76 232 161
375 311 524 190 188 437 309 721 352 136 22 422 14 552 -15 560 -123 900 -502
978 -1089 13 -96 15 -338 15 -1593 l0 -1479 -115 0 -115 0 0 1453 c0 930 -4
1483 -10 1537 -23 184 -78 360 -161 508 -61 107 -225 271 -333 331 -172 97
-358 142 -586 142 -226 0 -386 -37 -559 -126 -208 -108 -374 -282 -490 -513
-41 -81 -87 -220 -114 -341 -21 -95 -21 -115 -24 -1543 l-4 -1448 -114 0 -115
0 0 1453 c0 1532 -1 1546 -46 1720 -124 481 -458 765 -934 795 -254 16 -455
-19 -645 -112 -295 -146 -501 -418 -595 -786 -49 -194 -50 -201 -50 -1682 l0
-1388 -115 0 -115 0 0 2060 0 2060 115 0 115 0 0 -372 1 -373 28 75 c62 166
146 294 275 417 148 142 305 228 504 279 147 37 210 43 417 39 143 -3 212 -9
280 -24z m4924 -3712 c156 -78 199 -272 91 -409 -43 -54 -138 -100 -205 -100
-162 0 -285 130 -273 288 15 196 212 308 387 221z"/>
</g>
</svg>
